<?xml version="1.0" encoding="utf-8"?>
<!-- Generator: Adobe Illustrator 19.2.1, SVG Export Plug-In . SVG Version: 6.00 Build 0)  -->
<svg version="1.1" id="layer" xmlns="http://www.w3.org/2000/svg" xmlns:xlink="http://www.w3.org/1999/xlink" x="0px" y="0px"
	 viewBox="0 0 652 652" style="enable-background:new 0 0 652 652;" xml:space="preserve">
<style type="text/css">
	.st0{fill-rule:evenodd;clip-rule:evenodd;fill:#D61518;}
	.st1{fill-rule:evenodd;clip-rule:evenodd;fill:#221714;}
</style>
<g>
	<g>
		<path class="st0" d="M115.2,302.6c-21.9,0-39.6,17.7-39.6,39.6c0,6,1.3,11.6,3.7,16.6h-35v-53.5h-23v53.5v21h23h26.8l10.5-16.6
			c7,11.2,19.4,18.6,33.5,18.6c21.9,0,39.6-17.7,39.6-39.6C154.8,320.3,137,302.6,115.2,302.6 M115.2,360.9
			c-10.3,0-18.7-8.4-18.7-18.7c0-10.3,8.4-18.7,18.7-18.7c10.3,0,18.7,8.4,18.7,18.7C133.9,352.5,125.5,360.9,115.2,360.9"/>
		<polygon class="st0" points="212,351 184.1,305.3 181.4,305.3 163.9,305.3 161.1,305.3 161.1,379.7 181.4,379.7 181.4,334 
			209.2,379.7 212,379.7 229.5,379.7 232.2,379.7 232.2,305.3 212,305.3 		"/>
		<path class="st0" d="M316.4,335.2h-19.8h-18.6v13.2h18.8c-2.6,7.9-10,13.5-18.8,13.5c-11,0-19.8-8.9-19.8-19.8
			c0-11,8.9-19.8,19.8-19.8c5.2,0,10,2.1,13.5,5.4h23.3c-5.8-14.7-20.1-25.1-36.9-25.1c-21.9,0-39.6,17.7-39.6,39.6
			c0,21.9,17.7,39.6,39.6,39.6c21.9,0,39.6-17.7,39.6-39.6c0-2.4-0.2-4.7-0.6-6.9H316.4z"/>
		<rect x="325.4" y="259.2" class="st0" width="23.1" height="23"/>
		<rect x="325.4" y="304.9" class="st0" width="23.1" height="76.7"/>
	</g>
	<g>
		<path class="st1" d="M419.7,341.5c-2.6-1.5-6-3.1-10.5-4.7l-8.2-3.5c0,0-6.4-2.1-6-8.2c0,0-0.1-1.9,1.3-3.7
			c5.8-7.8,24.8-2.3,30.8,1.8V315l0.2-6.2c0,0-3.3-1.6-8.8-2.8c-7.7-1.6-15.1-1.7-22.6,1c-6.9,2.4-14.4,7.7-15.2,19
			c0,0-1.9,13.4,14.9,20.3c0,0,6.3,2.3,10.1,3.8c0,0,9.8,3.4,9,10.4c0,0-0.2,4.3-4.7,6.5c-7.5,3.7-21-0.3-27.5-3l-1.8-0.9v14.2
			c9.6,4.6,22.4,5.6,32.7,2.5c8.9-2.7,16.4-10.8,16.9-20.4C430.5,350.9,426.8,345.6,419.7,341.5"/>
		<path class="st1" d="M573.4,364.3v-21.5c0-2.5-0.5-4.8-1.4-6.8c-0.9-2-2.2-3.7-3.8-5.2c-1.6-1.4-3.4-2.6-5.5-3.5
			c-2.3-1-4.8-1.6-7.4-2c-2.6-0.3-5.2-0.4-7.7-0.1c-2.5,0.3-4.9,0.8-7,1.7c-2.3,0.9-4.5,2.2-6.5,3.8c-2,1.7-3.7,3.6-5,6
			c-1.3,2.2-2.2,4.6-2.7,7.3h13.4c0.2-1.1,0.6-2.1,1.1-3c0.7-1.3,1.6-2.3,2.8-3.1c1-0.7,2.1-1.3,3.4-1.7c1.3-0.4,2.6-0.6,3.9-0.6
			c1.3,0,2.6,0.2,3.9,0.6c1.1,0.3,1.7,0.8,2.6,1.4c0.8,0.6,1.5,1.4,2,2.4c0.5,1,0.7,2.1,0.7,3.4v3c-6.8,1.8-12.6,3.2-20.6,4.9
			c-2.2,0.5-4.1,1.1-5.8,2c-1.7,0.9-3.1,2.1-4.4,3.4c-1.2,1.3-2.2,2.8-2.9,4.4c-0.8,1.9-1.3,3.9-1.4,5.9c-0.1,2.1,0.2,4.1,0.9,6
			c0.7,1.9,1.8,3.7,3.3,5.2c1.4,1.4,3.2,2.6,5.3,3.5c2.1,0.9,4.6,1.5,7.5,1.7c4,0.3,7.7-0.1,11-1.2c3.3-1.1,6.3-2.8,8.9-5.2
			c0.2,0.8,0.4,1.7,0.7,2.4c0.3,0.8,0.5,1.6,0.9,2.4h13.6c-1.2-2.9-2.1-5.7-2.7-8.6C573.7,370.3,573.4,367.4,573.4,364.3 M560,361.9
			c0,2-0.5,3.7-1.4,5.2c-0.9,1.5-1.8,2.8-3.3,3.8c-1.1,0.7-2.3,1.3-3.7,1.8c-1.3,0.4-2.7,0.7-4.1,0.9c-1.4,0.1-2.4,0.1-3.8-0.1
			c-1.2-0.2-2.3-0.5-3.1-1.1c-0.9-0.5-1.5-1.2-2-2c-0.5-0.8-0.8-1.6-0.9-2.5c-0.1-1.1,0-2.3,0.6-3.4c0.5-1.1,1.4-2.1,2.6-2.9
			c1.2-0.8,2.7-1.3,4.6-1.7c5.8-1.3,8.8-2.1,14.6-3.3V361.9z"/>
		<path class="st1" d="M490.2,339.1c-1.2-2.2-2.6-4.2-4.4-6c-2.5-2.6-5.4-4.6-8.7-5.9c-3.3-1.4-6.8-2.1-10.6-2.1
			c-2.7,0-5.3,0.4-7.8,1.2c-2.5,0.7-4.8,1.8-7,3.2c-2.1,1.4-4.1,3.1-5.7,5.1c-2.2,2.6-3.9,5.6-5,8.9c-1.2,3.3-1.8,6.9-1.8,10.7
			c0,4.4,0.7,8.4,2.1,12.1c1.4,3.7,3.5,6.9,6.3,9.6c1.6,1.6,3.4,2.9,5.5,4c2,1.1,4.2,2,6.4,2.6c2.3,0.6,4.6,0.9,7,1
			c2.8,0,5.4-0.4,7.9-1.2c2.5-0.8,4.8-1.9,7-3.3c2.2-1.4,4.1-3.2,5.8-5.1c2.2-2.6,3.8-5.6,4.9-8.9c1.2-3.4,1.7-6.9,1.7-10.7
			c0-2.8-0.3-5.4-0.9-7.9C492.3,343.7,491.4,341.4,490.2,339.1 M479.6,361.1c-0.8,2.2-1.9,4-3.3,5.4c-1.4,1.4-3,2.4-4.7,3.1
			c-1.7,0.7-3.6,1-5.4,0.9c-1.8,0-3.5-0.4-5.1-1.1c-1.6-0.7-3.1-1.7-4.4-3.1c-1.3-1.4-2.4-3.1-3.3-5.1c-0.6-1.6-1-3.4-1.1-5.3
			c-0.1-1.9,0-3.8,0.4-5.6c0.4-1.9,1-3.5,1.9-5.1c0.9-1.5,2-2.8,3.2-3.9c1.2-1,2.6-1.9,4-2.4c1.4-0.6,2.9-0.9,4.4-1
			c1.5-0.1,3,0.1,4.5,0.6c1.5,0.5,2.9,1.2,4.2,2.2c1.3,1,2.5,2.3,3.5,3.8c1.1,1.6,1.8,3.3,2.2,5.2c0.4,1.9,0.6,3.8,0.4,5.7
			C480.6,357.4,480.2,359.3,479.6,361.1"/>
		<rect x="502.8" y="305.1" class="st1" width="13.4" height="76.5"/>
		<path class="st1" d="M614.4,325.2c-10.2-0.3-13.9,6-15.2,8.9v-9.1h-13.4v56.5h13.4v-26c0.7-5.4,3.6-12.2,8.7-15.6
			c3.5-2.4,8.2-3.2,13.3-0.2v-12.9C617.8,325.5,614.4,325.2,614.4,325.2"/>
	</g>
</g>
</svg>
